<?xml version="1.0" encoding="UTF-8" standalone="no"?>
<!-- Created with Inkscape (http://www.inkscape.org/) -->

<svg
   xmlns:dc="http://purl.org/dc/elements/1.1/"
   xmlns:cc="http://creativecommons.org/ns#"
   xmlns:rdf="http://www.w3.org/1999/02/22-rdf-syntax-ns#"
   xmlns:svg="http://www.w3.org/2000/svg"
   xmlns="http://www.w3.org/2000/svg"
   xmlns:sodipodi="http://sodipodi.sourceforge.net/DTD/sodipodi-0.dtd"
   xmlns:inkscape="http://www.inkscape.org/namespaces/inkscape"
   width="82.008125mm"
   height="29.067205mm"
   viewBox="0 0 82.008125 29.067205"
   version="1.1"
   id="svg5320"
   inkscape:version="0.92.2 (5c3e80d, 2017-08-06)"
   sodipodi:docname="Strangework.svg">
  <defs
     id="defs5314" />
  <sodipodi:namedview
     id="base"
     pagecolor="#ffffff"
     bordercolor="#666666"
     borderopacity="1.0"
     inkscape:pageopacity="0.0"
     inkscape:pageshadow="2"
     inkscape:zoom="1.979899"
     inkscape:cx="286.24994"
     inkscape:cy="42.856166"
     inkscape:document-units="mm"
     inkscape:current-layer="layer1"
     showgrid="false"
     inkscape:window-width="1920"
     inkscape:window-height="1017"
     inkscape:window-x="1912"
     inkscape:window-y="-8"
     inkscape:window-maximized="1" />
  <metadata
     id="metadata5317">
    <rdf:RDF>
      <cc:Work
         rdf:about="">
        <dc:format>image/svg+xml</dc:format>
        <dc:type
           rdf:resource="http://purl.org/dc/dcmitype/StillImage" />
        <dc:title></dc:title>
      </cc:Work>
    </rdf:RDF>
  </metadata>
  <g
     inkscape:label="Layer 1"
     inkscape:groupmode="layer"
     id="layer1"
     transform="translate(-107.1624,-163.78187)">
    <path
       style="fill:#969696;fill-opacity:1;fill-rule:nonzero;stroke:#969696;stroke-width:0.26499999;stroke-miterlimit:4;stroke-dasharray:none;stroke-opacity:1"
       id="path5272"
       d="m 108.43362,165.97197 c 0.401,0.32165 0.81334,0.63083 1.19566,0.97487 0.30218,0.288 0.53329,0.6405 0.76093,0.98789 0.20562,0.36524 0.43208,0.71698 0.66674,1.06387 0.21584,0.31024 0.40047,0.64006 0.6011,0.96005 0.16572,0.28176 0.3144,0.56997 0.44667,0.86895 0.16163,0.35995 0.33677,0.71345 0.50689,1.06938 0.16891,0.34684 0.3382,0.69482 0.48824,1.05036 0.15647,0.31495 0.23758,0.65686 0.35789,0.98537 0.12591,0.33089 0.2273,0.66786 0.3249,1.0078 0.1023,0.37749 0.23424,0.74597 0.32717,1.12595 0.10607,0.30332 0.18205,0.61587 0.29462,0.91677 0.12946,0.3152 0.14584,0.65567 0.19435,0.98826 0.0835,0.37176 0.13555,0.748 0.16484,1.12756 0.0171,0.37418 0.0385,0.75014 0.0132,1.12427 -0.0626,0.33261 -0.11166,0.66794 -0.1926,0.99674 -0.0819,0.36943 -0.14973,0.74085 -0.23404,1.10992 -0.26869,0.86312 -0.76109,1.82925 -1.50944,2.31861 -0.22372,0.23112 -0.53355,0.28191 -0.83874,0.31954 -0.36786,0.0326 -0.7377,0.0293 -1.10666,0.029 -0.33201,-0.0335 -0.62792,-0.14669 -0.8589,-0.38956 -0.23702,-0.22364 -0.3311,-0.51249 -0.38767,-0.82391 -0.0399,-0.36951 -0.12609,-0.73107 -0.17566,-1.09931 -0.073,-0.43137 -0.006,-0.8613 0.0485,-1.28986 0.0372,-0.40085 0.14517,-0.78949 0.2073,-1.18657 0.0788,-0.32811 0.15638,-0.65546 0.22553,-0.98598 0.0859,-0.37316 0.19652,-0.73959 0.31156,-1.10461 0.11575,-0.34654 0.21075,-0.69828 0.32574,-1.04512 0.1028,-0.34373 0.19618,-0.68905 0.28393,-1.03683 0.0755,-0.34644 0.21368,-0.6728 0.31605,-1.01081 0.0817,-0.35865 0.17319,-0.71519 0.28354,-1.06613 0.11377,-0.37994 0.23488,-0.75801 0.36551,-1.13254 0.15474,-0.42512 0.31027,-0.85009 0.47393,-1.27183 0.11911,-0.30252 0.25911,-0.59524 0.39383,-0.89088 0.12673,-0.25199 0.2569,-0.50225 0.37682,-0.75763 0.1451,-0.27984 0.31044,-0.54722 0.48194,-0.81131 3.23176,-4.58365 0.14324,-0.20767 0.21759,-0.30953 0.55508,-0.76034 0.8603,-1.46286 1.55853,-1.98583 0.27732,-0.22941 0.6181,-0.35149 0.97636,-0.34889 0.33763,0.0157 0.59312,0.19917 0.80448,0.44793 0.23652,0.25993 0.41897,0.56139 0.58764,0.86797 0.16328,0.31542 0.29975,0.63694 0.41361,0.97294 0.1133,0.36332 0.24138,0.72224 0.33227,1.09208 0.0736,0.38116 0.17661,0.7545 0.23642,1.1384 0.0872,0.38488 0.17036,0.76815 0.21074,1.16111 0.0143,0.42867 0.0473,0.85139 0.11579,1.27471 0.0682,0.39242 0.0937,0.7898 0.10536,1.18733 0.009,0.42642 0.009,0.85296 0.009,1.27945 0.007,0.38276 -0.0159,0.76649 0.0134,1.14841 0.0644,0.37703 0.11889,0.75457 0.14855,1.13599 0.0245,0.37864 0.0258,0.75824 0.0272,1.13751 5.3e-4,0.37804 -2.3e-4,0.75608 -5.2e-4,1.13413 -2.7e-4,0.37796 -5.3e-4,0.75592 -5.3e-4,1.13388 0.001,0.36227 -0.003,0.72457 0.002,1.08683 0.0194,0.69027 0.19007,0.048 -1.21838,1.41684 -0.0323,0.0314 5.3e-4,-0.0902 7.9e-4,-0.13529 7.9e-4,-0.12386 7.9e-4,-0.19683 0.001,-0.32215 0.002,-0.46109 0.002,-0.9222 0.003,-1.3833 0.002,-0.56182 10e-4,-1.12365 -2.5e-4,-1.68547 -0.001,-0.42316 -0.002,-0.84632 -0.002,-1.26948 -2.2e-4,-0.37817 -2.1e-4,-0.75634 -2.1e-4,-1.13451 1e-5,-0.0628 2.6e-4,-0.12557 1e-5,-0.18836 -1.3e-4,-0.0255 -0.01,-0.2307 -0.006,-0.23468 1.25364,-1.37375 1.22685,-1.92175 1.22198,-1.18724 -0.001,0.34245 0.0598,0.687 0.13891,1.01961 0.19004,0.51929 0.3622,-0.25835 -1.04572,1.4396 -0.0249,0.03 0.018,-0.0763 0.0204,-0.11516 0.003,-0.0421 -0.004,-0.0842 -0.006,-0.12635 -0.0523,-0.28447 -0.33812,-0.31101 -0.57944,-0.34367 -0.39967,0.008 -0.72686,0.173 -1.01976,0.43463 0.1121,-0.28319 -0.59977,0.7778 -0.40377,0.50091 1.63895,-2.31549 1.03155,-1.59931 0.77253,-0.97133 -0.10662,0.36276 -0.17839,0.51839 0.2215,0.63377 0.45727,0.0994 0.87754,-0.10887 1.27389,-0.31405 0.47968,-0.27313 0.77884,-0.57101 1.09779,-1.01342 0.58637,-0.81466 -0.50154,0.7199 -0.75827,1.0756 -0.0489,0.0677 0.0893,-0.14101 0.13476,-0.21103 0.12909,-0.19901 0.2567,-0.39411 0.37181,-0.60164 0.42739,-0.86977 0.98109,-1.59381 1.54483,-2.409 0.35066,-0.24568 0.45513,0.33399 0.51454,0.5645 0.0881,0.53798 0.18579,1.07242 0.31478,1.60235 0.1446,0.51533 0.276,1.03439 0.46195,1.53677 0.16076,0.39452 0.33839,0.77717 0.44155,1.19187 0.079,0.37421 0.0742,0.75694 0.1366,1.13345 0.034,0.3484 0.14935,0.67742 0.23239,1.01499 0.21166,1.06487 0.35062,0.20929 -0.99162,1.85808 0.0736,-0.28872 0.1453,-0.57757 0.21417,-0.86757 0.10252,-0.36427 0.17667,-0.73415 0.29524,-1.0939 0.43492,-0.96659 1.02428,-1.90355 1.90018,-2.50888 0.34698,-0.21658 0.72205,-0.30485 1.12523,-0.26314 0.37476,0.0985 0.55904,0.38955 0.67601,0.7357 0.0945,0.36786 0.0957,0.75008 0.0999,1.12734 0.0293,1.2823 -0.13092,1.01071 -1.19038,2.52794 -0.37917,0.18471 -0.62627,0.18199 -0.95248,-0.0921 -0.40377,-0.57091 -0.44523,-1.30993 -0.51042,-1.98472 -0.0726,-0.79022 -0.0848,-1.57998 0.0213,-2.36676 0.0845,-0.55946 0.19415,-1.11274 0.32163,-1.66365 0.0924,-0.3765 0.22024,-0.74065 0.3582,-1.10212 0.34105,-0.69305 0.84749,-2.28574 1.54016,-2.04032 0.22781,0.19546 0.19358,0.51958 0.25622,0.7919 0.0414,0.30802 0.16525,0.46164 0.45929,0.54352 0.31371,0.0891 0.5662,0.002 0.84322,-0.13441 0.24331,-0.21543 0.45122,-0.47026 0.63918,-0.73415 0.18675,-0.25213 0.47827,-0.26269 0.5707,0.062 -0.0208,0.30337 -0.0562,0.60545 -0.0733,0.90947 -0.0176,0.37605 -0.0192,0.75258 -0.0207,1.12895 -7.9e-4,0.37905 -2.6e-4,0.7581 -1.4e-4,1.13715 0.004,0.35729 -0.0211,0.71429 0.0411,1.06748 0.0846,0.35343 0.11481,0.71416 0.13215,1.07601 0.0156,0.41491 0.0163,0.83017 0.017,1.24531 0.0294,0.27311 0.0309,0.58858 0.25318,0.7786 0.26706,0.20516 0.59631,0.2564 0.92162,0.29266 0.3529,0.0338 0.68654,0.0763 0.97257,-0.16228 0.0421,-0.0313 0.0875,-0.0585 0.12626,-0.0939 0.0744,-0.068 0.1448,-0.14026 0.21464,-0.21291 0.0335,-0.0348 0.11837,-0.15281 0.0905,-0.11329 -0.32755,0.46515 -1.29837,1.86835 -0.98983,1.39038 0.36044,-0.55835 0.76376,-1.08782 1.14563,-1.63173 -1.67501,2.68483 -0.97079,1.44381 -0.6941,0.73513 0.10477,-0.33816 0.2006,-0.67897 0.31209,-1.01501 0.12591,-0.34614 0.14782,-0.71535 0.23604,-1.07037 0.097,-0.32559 0.13126,-0.6626 0.1515,-1.00017 0.0166,-0.37238 0.0153,-0.74524 0.0154,-1.1179 -5.3e-4,-0.37832 -10e-4,-0.75665 -10e-4,-1.13497 -2.6e-4,-0.37809 -2.6e-4,-0.75616 -2.6e-4,-1.13425 0.002,-0.21798 0.0355,-0.57266 -0.25814,-0.58702 -0.2335,0.10601 -0.42322,0.2735 -0.58964,0.46673 -0.37105,0.64848 0.0601,-0.11489 0.90692,-1.25296 0.0313,-0.0421 -0.0418,0.0964 -0.0603,0.14556 -0.0633,0.16868 -0.11521,0.34182 -0.16465,0.51492 -0.069,0.28909 -0.14801,0.61261 0.0171,0.88147 0.16005,0.24758 0.41396,0.30311 0.68767,0.34238 0.44965,0.004 0.77641,-0.24797 1.11643,-0.51082 0.32592,-0.27794 0.59091,-0.61758 0.90348,-0.90744 0.0324,-0.0398 0.12657,-0.16134 0.0971,-0.11934 -2.06146,2.94057 -0.46248,0.58891 0.2845,-0.2022 0.0491,-0.052 0.21186,0.19777 0.21384,0.20045 0.17667,0.37072 0.24034,0.77885 0.28707,1.18293 0.0766,0.4119 0.15279,0.82135 0.19057,1.23898 0.0187,0.42316 0.11341,0.83726 0.16824,1.25636 0.046,0.38262 0.0539,0.76821 0.0591,1.1531 0.003,0.37782 0.002,0.75566 0.001,1.13348 -5.3e-4,0.37787 -7.9e-4,0.75573 -7.9e-4,1.13359 0.004,0.17859 -0.0116,0.35762 0.0136,0.53533 0.005,0.0346 0.0143,0.0685 0.0232,0.10236 0.003,0.0103 0.0178,0.0384 0.0116,0.0297 -0.0166,-0.0232 -0.0287,-0.0492 -0.0431,-0.0737 -1.95984,2.53696 -1.1947,1.73107 -0.91308,1.11482 0.10198,-0.22314 0.18507,-0.4541 0.27112,-0.68364 0.20942,-0.66958 0.45495,-1.32655 0.68494,-1.98915 0.21612,-0.6913 0.44597,-1.3778 0.66755,-2.06734 0.15097,-0.45746 0.31693,-0.91022 0.48573,-1.36147 0.11209,-0.33916 0.2499,-0.66932 0.3855,-0.99967 0.34632,-0.7581 0.0652,-0.16782 1.22739,-1.79541 0.12595,-0.17639 0.21982,-0.24214 0.41245,-0.13511 0.22062,0.32807 0.16895,0.77652 0.17547,1.15799 0.003,0.48519 5.3e-4,0.97039 -8e-4,1.45557 1e-4,0.43124 -0.0186,0.86129 0.0425,1.2891 0.0706,0.38085 0.10955,0.7656 0.13099,1.15199 0.0167,0.37807 0.0165,0.75661 0.017,1.13496 0.006,0.37552 -0.0156,0.7519 0.0131,1.12658 0.036,0.13695 0.0692,0.72775 0.25514,0.30827 0.43807,-0.65433 -0.27625,0.41597 -0.86192,1.18916 -0.0486,0.0641 0.0767,-0.14145 0.1111,-0.21414 0.11583,-0.24488 0.20937,-0.50116 0.30619,-0.75389 0.19702,-0.46313 0.35675,-0.94085 0.49701,-1.42393 0.12969,-0.45697 0.25896,-0.91396 0.38612,-1.37165 0.0924,-0.37724 0.182,-0.75701 0.31807,-1.12129 0.099,-0.32383 0.25088,-0.62407 0.39862,-0.92689 0.11326,-0.27885 0.21681,-0.56277 0.34955,-0.83311 0.34526,-0.84311 0.88299,-1.46482 1.43069,-2.24227 0.37549,-0.0285 0.35579,0.48931 0.37119,0.74375 0.0174,0.44279 0.0165,0.88603 0.0165,1.32909 -5.3e-4,0.38926 -0.001,0.77851 -0.002,1.16777 -2.6e-4,0.37767 -2.6e-4,0.75534 -2.6e-4,1.13302 -1e-5,0.37778 0,0.75556 1e-5,1.13334 0,0.37797 0,0.75594 0,1.1339 -0.0221,0.3635 0.0309,0.72008 0.10141,1.07529 0.1728,0.53744 0.50327,-0.48412 -1.02432,1.4177 -0.0684,0.0851 0.0941,-0.19724 0.13362,-0.29899 0.10539,-0.37272 0.20469,-0.74698 0.31459,-1.11842 0.11032,-0.43142 0.22853,-0.86119 0.36483,-1.28518 0.0842,-0.36039 0.25872,-0.68631 0.40437,-1.02314 0.11467,-0.36498 0.25917,-0.71909 0.38844,-1.07877 0.11319,-0.30535 0.25382,-0.59877 0.3895,-0.89428 0.14375,-0.25279 0.23343,-0.52777 0.34646,-0.79411 0.10775,-0.27082 0.22865,-0.53299 0.32298,-0.80904 0.29816,-0.74528 1.34745,-2.50106 1.48521,-1.23457 0.0139,0.37242 -1.5e-4,0.74528 -0.006,1.11777 -0.006,0.38169 -0.007,0.76343 -0.008,1.14515 -5.3e-4,0.3783 -5.3e-4,0.7566 -2.6e-4,1.1349 5e-5,0.37794 8e-5,0.75588 1e-4,1.13382 1e-5,0.37797 1e-5,0.75594 1e-5,1.13391 0.002,0.30543 -0.0365,0.63908 0.14424,0.9031 0.23433,0.18215 0.55632,0.17114 0.83959,0.18197 0.37231,-0.005 0.74919,0.0317 1.11776,-0.0282 0.37582,-0.10805 0.65954,-0.37721 0.91366,-0.6615 0.42539,-0.64148 -0.0354,0.0563 -0.84786,1.1975 -0.0375,0.0526 0.0719,-0.10742 0.10411,-0.16343 0.0964,-0.1679 0.15657,-0.34771 0.22088,-0.52931 0.15009,-0.35839 0.1933,-0.74245 0.25483,-1.12188 0.0879,-0.37139 0.14316,-0.74762 0.17321,-1.12773 0.0239,-0.37615 0.0241,-0.75324 0.025,-1.12998 1.1e-4,-0.37793 -8e-4,-0.75586 -0.001,-1.13378 0.007,-0.36887 0.0139,-0.73435 -0.0864,-1.09196 -0.11972,-0.27208 -0.349,-0.32959 -0.61066,-0.23328 -0.30363,0.0933 -0.54542,0.29252 -0.72565,0.54982 -0.50254,0.70751 0.56405,-0.81063 0.85558,-1.20911 0.0363,-0.0497 -0.0611,0.10697 -0.0872,0.1627 -0.0796,0.17004 -0.11973,0.34527 -0.15663,0.52802 -0.0568,0.32582 -0.0916,0.63987 0.15821,0.88676 0.39054,0.20272 0.83583,0.19473 1.2556,0.10885 0.54117,-0.14466 0.89873,-0.53204 1.1996,-0.98194 -1.69166,2.39004 -0.95749,1.54319 -0.77354,0.91376 0.0552,-0.18901 0.0762,-0.3812 0.0951,-0.57625 0.0587,-0.12486 -0.0217,-0.26843 -0.0142,-0.39098 0.003,-0.0557 0.0711,0.17223 0.10652,0.12912 0.37677,-0.45863 0.68177,-0.97178 1.02265,-1.45767 -0.0795,0.31482 -0.0732,0.64554 -0.0789,0.96839 0.0151,0.38977 -0.0137,0.77225 -0.0767,1.15635 -0.0669,0.37291 -0.0914,0.75087 -0.10558,1.12883 -0.0106,0.37723 -0.01,0.75465 -0.01,1.13198 0.002,0.38308 0.0142,0.7642 -0.0413,1.14402 -0.0714,0.37224 -0.10967,0.74869 -0.13081,1.12674 -0.0167,0.37676 -0.0165,0.75399 -0.0169,1.13104 8e-5,0.37795 7.9e-4,0.7559 0.001,1.13386 2.7e-4,0.37799 2.7e-4,0.75598 2.7e-4,1.13397 2e-5,0.37797 1e-5,0.75595 0,1.13393 0,0.37797 0,0.75595 0,1.13393 0.0158,0.40273 -0.005,0.799 -0.0731,1.19575 -0.0386,0.34863 -0.10962,0.68012 -0.26406,0.99576 -0.51952,0.87593 -1.00543,1.84254 -1.83659,2.45297 -0.36158,0.27729 -0.80646,0.42022 -1.24061,0.54304 -0.4084,0.10001 -0.81552,0.16244 -1.22319,0.0438 -0.49119,-0.18012 -0.81724,-0.57052 -1.10582,-0.98778 -0.30802,-0.52865 -0.35184,-1.1298 -0.35003,-1.72762 0.0425,-0.83447 0.41645,-1.58497 0.80606,-2.30618 0.70285,-1.1864 1.49618,-2.32004 2.44455,-3.32187 0.42056,-0.41484 0.78727,-0.87896 1.14695,-1.34615 0.35402,-0.47866 0.73066,-0.94031 1.08985,-1.41498 -1.78135,2.64787 -0.55713,0.77092 -0.20787,0.11487 0.25124,-0.47043 0.45425,-0.96523 0.64466,-1.46284 0.16905,-0.44871 0.36191,-0.88736 0.56251,-1.32265 0.14914,-0.38366 0.32197,-0.75776 0.47077,-1.14143 0.16501,-0.26969 0.16384,-0.63947 0.33818,-0.90181 0.36055,-0.54262 0.73846,-1.0735 1.1077,-1.61025 0.38286,0.0297 0.32039,0.59096 0.32958,0.86148 0.01,0.43273 0.008,0.86561 0.008,1.29842 -1.9e-4,0.41449 -0.002,0.82897 -0.003,1.24346 6e-5,0.40962 5.3e-4,0.81925 8e-4,1.22887 1.9e-4,0.38024 2.1e-4,0.76048 2.3e-4,1.14072 1e-5,0.37762 1e-5,0.75525 0,1.13287 0.001,0.36222 -0.002,0.72447 0.002,1.08666 7.9e-4,0.0263 0.0195,0.059 0.002,0.0788 -1.2933,1.47528 -1.22604,1.89438 -1.21725,1.10373 0.003,-0.29069 0.003,-0.58139 0.004,-0.87209 -8e-4,-0.54209 -0.002,-1.08417 -0.002,-1.62625 -8e-4,-0.47121 -2.3e-4,-0.94242 -8e-4,-1.41363 0.0131,-0.39766 0.0872,-0.78476 0.23165,-1.15463 0.0435,-0.0837 0.13065,-0.25767 0.18419,-0.33579 0.38265,-0.55834 0.78345,-1.10421 1.16001,-1.66668 0.31008,-0.46316 -1.30818,1.80439 -0.96053,1.36872 0.45119,-0.56543 0.8321,-1.18389 1.26828,-1.76099 -0.11424,0.25862 0.47454,-0.58281 0.3022,-0.33512 -0.32145,0.46202 -1.30895,1.83166 -0.97557,1.37817 0.80232,-1.09141 0.82342,-1.12563 1.25226,-1.76612 -0.24626,0.29308 0.54733,-0.70044 0.32583,-0.3831 -0.32201,0.46136 -1.29933,1.8375 -0.97605,1.37703 0.38408,-0.54708 0.76599,-1.09575 1.15846,-1.63684 0.33266,-0.45863 -0.65269,0.92631 -0.97903,1.38947 0.32471,-0.99575 1.04744,-1.42817 1.61615,-2.13819 0.31242,-0.25721 0.40113,0.20163 0.4238,0.41979 0.0236,0.4436 0.0184,0.8883 0.018,1.3324 0.0278,0.41085 -0.0431,0.81274 -0.10552,1.21643 -0.0575,0.37321 -0.0726,0.75073 -0.0818,1.12764 -0.007,0.37716 -0.005,0.7544 -0.005,1.1316 5.3e-4,0.37796 8e-4,0.75592 0.001,1.13388 1.3e-4,0.37799 1.3e-4,0.75598 1.4e-4,1.13397 0.005,0.19399 -0.009,0.38886 0.007,0.58248 0,0 -1.18218,1.4626 -1.18218,1.4626 v 0 c -0.0789,-0.19706 -0.0231,-0.41467 -0.0385,-0.62376 0,-0.37797 0,-0.75594 -9e-5,-1.13391 -1.1e-4,-0.37793 -2.6e-4,-0.75586 -7.9e-4,-1.13379 -5.3e-4,-0.37805 -0.002,-0.7561 0.002,-1.13413 0.006,-0.38186 0.0147,-0.76452 0.0643,-1.14371 0.0568,-0.39988 0.15788,-0.794 0.12794,-1.20104 0.002,-0.43922 0.006,-0.87867 -0.0102,-1.31768 -0.005,-0.0901 -0.0195,-0.18036 -0.0128,-0.2703 0.005,-0.071 0.0885,-0.0104 -0.0478,0.0936 -0.51166,0.52846 -1.3496,1.71682 0.52456,-0.88678 -3.28322,4.67999 7.9e-4,0.003 -0.18102,0.24758 -0.50557,0.6802 -0.94172,1.38517 -1.47092,2.03704 -0.0319,0.0416 -0.12555,0.16811 -0.0958,0.1249 0.31989,-0.46428 1.30666,-1.83773 0.96624,-1.38829 -0.50593,0.66797 -0.89093,1.38114 -1.45716,1.98258 -0.0334,0.0404 -0.12969,0.16467 -0.10017,0.12132 0.31627,-0.46458 1.29165,-1.83983 0.9608,-1.38551 -0.39693,0.54508 -0.75999,1.11439 -1.15913,1.65786 -0.32853,0.44731 0.62607,-0.91666 0.94721,-1.36931 0.0727,-0.10255 -0.25014,0.42654 -0.19618,0.32217 -0.17849,0.34773 -0.25565,0.71821 -0.2942,1.10625 -5.3e-4,0.47189 3e-5,0.94379 -7.9e-4,1.41568 -5.3e-4,0.54376 -0.002,1.08752 -0.002,1.63128 2.6e-4,0.1131 0.0436,1.01026 0.007,1.06296 -0.37549,0.53881 -0.80005,1.04214 -1.22028,1.54683 -0.0179,0.0215 0.002,-0.056 0.002,-0.084 0.004,-0.36345 2.6e-4,-0.72695 0.002,-1.09042 0,-0.37762 -1e-5,-0.75525 -1e-5,-1.13287 1e-5,-0.3804 2e-5,-0.76081 2e-4,-1.14121 2.2e-4,-0.41038 5.3e-4,-0.82077 0.001,-1.23115 2.2e-4,-0.41405 -0.001,-0.8281 0.001,-1.24214 0.002,-0.43195 0.005,-0.86395 -0.002,-1.29588 -0.005,-0.18514 -0.0134,-0.36889 -0.0247,-0.55365 -0.002,-0.0322 -0.0254,-0.0726 -0.004,-0.0965 0.0792,-0.0885 0.0811,0.0425 0.0825,0.0549 0.33115,-0.48263 0.66229,-0.96527 0.99344,-1.44789 -0.0246,0.0467 -0.0521,0.0921 -0.0739,0.14022 -0.11067,0.2447 -0.15418,0.51439 -0.27971,0.75363 -0.13195,0.39325 -0.32655,0.76045 -0.46155,1.15276 -0.1939,0.43855 -0.40594,0.86875 -0.5756,1.31797 -0.181,0.50317 -0.38384,1.00206 -0.62826,1.47734 -0.51082,1.03889 -1.21959,1.96724 -1.88731,2.90632 -0.36628,0.47049 -0.72981,0.9428 -1.09153,1.41678 -0.36135,0.46463 -0.74212,0.91415 -1.15863,1.33078 -0.19136,0.20722 -0.31358,0.3339 -0.49431,0.55328 -0.0838,0.10179 -0.31743,0.42092 -0.24425,0.31121 1.5741,-2.3596 0.7413,-1.05644 0.39645,-0.53578 -0.39258,0.70209 -0.79141,1.42774 -0.86935,2.24308 -0.0208,0.56222 0.01,1.13579 0.26907,1.64703 0.25314,0.38746 0.54293,0.75393 0.99866,0.90499 0.38015,0.0842 0.76255,0.006 1.13435,-0.0934 0.42032,-0.1334 0.84013,-0.28642 1.17839,-0.57941 0.53127,-0.46884 0.92955,-1.2202 -0.63102,1.06029 -0.25123,0.36713 0.63025,-0.84995 0.31639,-0.50084 0.1879,-0.29332 0.28626,-0.60486 0.31077,-0.95349 0.0707,-0.39124 0.13284,-0.77455 0.0981,-1.17485 0,-0.37797 0,-0.75595 1e-5,-1.13393 0,-0.37797 0,-0.75595 0,-1.13392 -1e-5,-0.37796 -3e-5,-0.75593 -2.3e-4,-1.13389 -2.5e-4,-0.378 -8e-4,-0.756 -0.001,-1.134 -1.2e-4,-0.37895 -0.001,-0.75799 0.0102,-1.13681 0.0152,-0.38234 0.0411,-0.76483 0.11472,-1.14112 0.0687,-0.37363 0.0791,-0.74349 0.0642,-1.12374 -2.6e-4,-0.37862 -0.002,-0.75729 0.005,-1.13588 0.01,-0.38296 0.0254,-0.76668 0.0872,-1.14545 0.0633,-0.37899 0.12943,-0.75053 0.0976,-1.13746 0.003,-0.33131 0.006,-0.66297 0.034,-0.99333 0.35721,-0.54247 0.67788,-1.11085 1.07165,-1.62739 0.0302,-0.0396 0.10006,0.0114 0.14648,0.0295 0.1894,0.0735 0.15545,0.35769 0.15212,0.51122 -0.0672,1.1519 -0.52878,1.72506 -1.36509,2.74606 -0.3488,0.44431 -0.75276,0.80159 -1.32564,0.91238 -0.47973,0.0674 -0.97692,0.0563 -1.40726,-0.19346 -0.3048,-0.28038 -0.36792,-0.60009 -0.29904,-1.00385 0.13873,-1.01173 0.77071,-1.77926 1.45975,-2.558 0.23161,-0.2397 0.50391,-0.42048 0.83397,-0.49411 0.35537,-0.0472 0.6562,0.0663 0.83781,0.3929 0.13476,0.36582 0.14578,0.74393 0.13079,1.13067 2.7e-4,0.37802 0.001,0.75603 0.001,1.13405 -4e-5,0.37941 0.001,0.75902 -0.0156,1.13815 -0.022,0.38479 -0.0603,0.76892 -0.15585,1.14348 -0.0874,0.37819 -0.0824,0.77696 -0.23333,1.1417 -0.0687,0.1829 -0.11361,0.37474 -0.19639,0.55205 -0.34198,0.73248 -0.86814,1.37098 -1.3877,1.98821 -0.28874,0.28473 -0.61531,0.53099 -1.02567,0.59941 -0.38066,0.0345 -0.76394,0.0189 -1.14573,0.0126 -0.3432,-0.019 -0.70181,-0.0381 -0.97692,-0.2694 -0.23439,-0.28271 -0.25202,-0.62788 -0.23627,-0.98424 0,-0.37796 0,-0.75593 0,-1.1339 0,-0.37793 -2e-5,-0.75587 -9e-5,-1.1338 -4e-5,-0.3784 -1.6e-4,-0.7568 1.8e-4,-1.13521 5.3e-4,-0.38233 0.001,-0.76467 0.006,-1.14698 0.005,-0.3681 0.015,-0.73616 0.015,-1.10431 -0.001,-0.0482 -0.0357,-0.25244 -1.3e-4,-0.302 1.98518,-2.76846 1.25083,-1.89953 0.99407,-1.27214 -0.0682,0.13738 -0.0907,0.27638 -0.14807,0.41775 -0.0178,0.0438 -0.0403,0.0854 -0.0604,0.12815 -0.0234,0.0398 -0.0518,0.0771 -0.0702,0.11954 -0.0199,0.046 -0.0293,0.0959 -0.0439,0.14389 -0.11036,0.26785 -0.18706,0.55 -0.34799,0.7937 -0.11106,0.30611 -0.27781,0.58831 -0.4018,0.88984 -0.11471,0.36601 -0.28647,0.71105 -0.37984,1.08398 -0.12482,0.34586 -0.33295,0.65663 -0.41597,1.01752 -0.13578,0.42327 -0.27101,0.84756 -0.37065,1.28099 -0.0986,0.37419 -0.22407,0.74161 -0.30435,1.1204 -0.20954,0.75211 -1.00324,2.6607 -1.55856,1.71272 -0.0709,-0.36416 -0.15031,-0.72908 -0.12626,-1.10217 0,-0.37796 0,-0.75593 -1e-5,-1.1339 -1e-5,-0.37778 -3e-5,-0.75555 -3e-5,-1.13333 0,-0.37774 -1e-5,-0.75548 2.6e-4,-1.13323 5.3e-4,-0.38978 10e-4,-0.77956 0.003,-1.16934 0.001,-0.44088 0.005,-0.88189 -0.009,-1.32263 -0.002,-0.0461 -0.0398,-0.53635 -0.0189,-0.55135 0.0177,-0.0127 0.0709,0.0582 0.0157,0.0634 1.89003,-2.73497 0.94308,-1.51401 0.68666,-0.8085 -0.1296,0.27196 -0.26534,0.54218 -0.35547,0.83043 -0.12557,0.31228 -0.32414,0.59007 -0.40626,0.92104 -0.14231,0.36092 -0.2589,0.7305 -0.33623,1.11182 -0.11788,0.4611 -0.26323,0.91456 -0.38618,1.37437 -0.12896,0.48917 -0.28529,0.97399 -0.48754,1.43772 -0.37732,1.03591 -0.83441,2.0328 -1.67804,2.8136 -0.43286,0.16922 -0.52743,-0.17963 -0.58725,-0.53712 -0.0596,-0.37685 -0.0195,-0.76013 -0.03,-1.14067 1.1e-4,-0.37642 0.001,-0.75294 -0.0102,-1.12923 -0.0154,-0.38208 -0.0431,-0.76388 -0.11474,-1.14018 -0.0739,-0.43589 -0.0746,-0.86971 -0.0619,-1.31167 0.001,-0.48402 0.004,-0.96805 0.002,-1.45207 -0.003,-0.33817 -0.0283,-0.68648 -0.0226,-1.01859 0.023,0.023 -0.2734,0.37873 -0.18874,0.25316 1.17709,-1.74598 1.23804,-1.85013 0.87301,-1.25747 -0.12745,0.33468 -0.28151,0.65914 -0.39128,0.99935 -0.16507,0.45565 -0.34321,0.9064 -0.49769,1.36575 -0.236,0.68739 -0.45394,1.38151 -0.6712,2.07504 -0.22917,0.65929 -0.47884,1.31172 -0.67306,1.98248 -0.38735,1.04205 -0.64338,1.63922 -1.56779,2.56551 -0.0483,-0.0176 -0.10116,-0.0257 -0.14479,-0.0529 -0.168,-0.10445 -0.11318,-0.58285 -0.12269,-0.74562 8e-5,-0.3779 1.9e-4,-0.75581 7.9e-4,-1.13371 5.3e-4,-0.37736 0.002,-0.75473 2.6e-4,-1.13209 -0.003,-0.3805 -0.006,-0.76162 -0.0426,-1.1407 -0.047,-0.42305 -0.14632,-0.83851 -0.17203,-1.26301 -0.0307,-0.41688 -0.091,-0.82829 -0.1887,-1.23523 -0.0344,-0.38225 -0.0821,-0.76828 -0.23282,-1.12494 -0.007,-0.0241 -0.0404,-0.0501 -0.0259,-0.0706 0.34648,-0.4927 0.69858,-0.98142 1.04787,-1.47212 0.0217,-0.0305 -0.0436,0.0609 -0.0652,0.0916 -0.38399,0.5455 -0.76175,1.09545 -1.15153,1.63683 -0.0304,0.0422 -0.072,0.075 -0.10795,0.11249 -0.29364,0.30853 -0.58918,0.61682 -0.92142,0.88469 -0.38154,0.27029 -0.76519,0.49749 -1.25114,0.44649 -0.31612,-0.0567 -0.61777,-0.14711 -0.81138,-0.42359 -0.23032,-0.29281 -0.22081,-0.63771 -0.13976,-0.98999 0.22209,-0.94474 0.70018,-1.75439 1.41702,-2.4674 0.21562,-0.19258 0.44395,-0.3986 0.75279,-0.37907 0.35524,0.10195 0.48704,0.38817 0.45982,0.74763 1e-5,0.37805 2e-5,0.7561 2.2e-4,1.13416 2.5e-4,0.37833 7.9e-4,0.75665 0.001,1.13498 5.3e-4,0.3744 0.002,0.74888 -0.008,1.12318 -0.013,0.3441 -0.0308,0.69062 -0.12068,1.0249 -0.10104,0.3569 -0.13256,0.72151 -0.23025,1.0799 -0.10884,0.33589 -0.22215,0.67087 -0.30674,1.01336 -0.27005,0.89505 -0.77404,1.56207 -1.39478,2.33114 0.32583,-0.46761 1.31801,-1.85987 0.9775,-1.40283 -0.53441,0.71727 -0.87516,1.54603 -1.62626,2.03037 -0.34603,0.16537 -0.70788,0.13951 -1.082,0.0953 -0.35961,-0.0488 -0.71694,-0.12422 -1.01343,-0.3475 -0.28146,-0.22972 -0.33227,-0.53709 -0.37818,-0.88504 2.6e-4,-0.41378 0.002,-0.82765 -0.0101,-1.24131 -0.0133,-0.35341 -0.0313,-0.70805 -0.11378,-1.05349 -0.0791,-0.36227 -0.0762,-0.72296 -0.0671,-1.09327 -1.9e-4,-0.37921 -5.3e-4,-0.75843 -2.6e-4,-1.13764 8e-4,-0.3779 0.001,-0.75588 0.0136,-1.13362 0.0119,-0.29857 0.0232,-0.599 0.0746,-0.89388 0.0257,-0.0498 0.0135,-0.0546 0.0593,-0.0677 0.022,-0.006 -0.0357,0.0288 -0.0524,0.0444 -0.0908,0.0849 -0.0985,0.10246 -0.18476,0.20759 -0.21159,0.2584 -0.41563,0.54258 -0.72207,0.69451 -0.3124,0.13182 -0.62978,0.15618 -0.95946,0.0629 -0.32787,-0.11034 -0.56825,-0.29262 -0.61525,-0.65735 -0.031,-0.1207 -0.16479,-0.56136 -0.078,-0.65086 0.0101,0.0289 -0.0479,0.11169 -0.0305,0.0865 1.77887,-2.57105 1.07695,-1.64447 0.7579,-1.02119 -0.12154,0.36642 -0.28511,0.71581 -0.37919,1.09254 -0.12467,0.55313 -0.26037,1.10197 -0.34012,1.66453 -0.13545,0.7763 -0.12738,1.5601 -0.0616,2.34424 0.0554,0.63403 0.0924,1.30991 0.4153,1.87459 0.23857,0.21225 0.48089,0.15684 0.6997,-0.0643 -2.30641,3.39678 -0.9115,1.65213 -0.86073,1.14265 0.0188,-0.18823 -0.0119,-0.38143 0.002,-0.57002 -7.9e-4,-0.36451 0.003,-0.73212 -0.0608,-1.09229 -0.07,-0.28134 -0.17667,-0.54389 -0.49253,-0.60368 -0.36952,-0.016 -0.70759,0.10876 -1.00825,0.3234 -0.12821,0.0979 -0.21048,0.15237 -0.32138,0.27011 -0.0508,0.054 -0.18324,0.23282 -0.14182,0.17133 1.65402,-2.45557 1.01257,-1.52017 0.6987,-0.9588 -0.14243,0.35017 -0.21036,0.71668 -0.30408,1.08135 -0.0908,0.28122 -0.14296,0.58198 -0.20499,0.86841 -0.83419,1.12114 -1.24087,2.34492 -1.45441,0.98079 -0.0725,-0.34394 -0.2079,-0.67032 -0.23778,-1.02317 -0.0703,-0.375 -0.0832,-0.74971 -0.12948,-1.12803 -0.0842,-0.41443 -0.25288,-0.79147 -0.41786,-1.17882 -0.19974,-0.5061 -0.32037,-1.03564 -0.47673,-1.55593 -0.12873,-0.52744 -0.24912,-1.05551 -0.31944,-1.59448 -0.0295,-0.12043 -0.068,-0.23854 -0.097,-0.35908 -0.0292,-0.1212 0.0689,-0.12371 -0.0619,0.0298 1.86168,-2.69819 0.88525,-1.33147 0.55457,-0.63453 -0.47453,0.98688 -1.28493,1.84749 -1.84779,2.76565 -0.32167,0.40666 -0.71044,0.74113 -1.17672,0.97528 -0.44654,0.20456 -0.9036,0.37917 -1.39986,0.24674 -0.43831,-0.15233 -0.58066,-0.35312 -0.45636,-0.82022 0.31008,-0.99435 1.02316,-1.83969 1.75968,-2.56017 0.34771,-0.24257 0.72259,-0.39808 1.15523,-0.3622 0.32475,0.0563 0.64959,0.14589 0.77807,0.48429 0.004,0.0196 0.053,0.27068 0.0404,0.29066 -0.10027,0.15997 -0.95037,2.36335 -1.3869,1.40592 -0.10349,-0.33557 -0.15115,-0.70045 -0.18021,-1.04849 -0.005,-0.78785 -0.0286,-0.11613 1.22198,-1.67426 0.0217,-0.027 -0.004,0.0691 -0.004,0.10377 -7.9e-4,0.0484 -10e-4,0.0968 -0.002,0.14515 -2.6e-4,0.0628 0,0.12557 0,0.18836 0,0.37832 2e-5,0.75665 -2e-4,1.13498 -2.6e-4,0.42487 -10e-4,0.84974 -0.002,1.27461 -0.001,0.56202 -0.002,1.12404 -2.5e-4,1.68606 10e-4,0.45845 8e-4,0.91691 0.003,1.37536 1.2e-4,0.0371 0.0133,0.43721 0.002,0.45257 -1.46115,2.00151 -1.23639,2.1686 -1.21839,1.43625 0.004,-0.36351 2.6e-4,-0.72707 0.002,-1.0906 2e-5,-0.378 6e-5,-0.75599 2.6e-4,-1.13399 2.6e-4,-0.3779 0.001,-0.7558 0.001,-1.13371 -5.3e-4,-0.37655 -1.2e-4,-0.75331 -0.0178,-1.12954 -0.0226,-0.37962 -0.0641,-0.7573 -0.14134,-1.13016 -0.0607,-0.38438 -0.0187,-0.77557 -0.0296,-1.16367 8e-4,-0.42565 0.003,-0.85134 -0.005,-1.27695 -0.01,-0.39139 -0.0245,-0.78351 -0.0869,-1.17075 -0.0687,-0.42698 -0.13045,-0.84925 -0.12499,-1.2835 -0.0318,-0.3909 -0.0973,-0.77576 -0.20521,-1.15345 -0.0489,-0.38267 -0.15014,-0.75126 -0.22423,-1.12849 -0.0778,-0.36767 -0.20979,-0.71746 -0.31642,-1.07701 -0.1207,-0.32434 -0.22438,-0.65096 -0.39054,-0.95687 -0.1562,-0.29965 -0.33429,-0.59166 -0.56133,-0.84335 -0.16724,-0.21613 -0.37582,-0.35924 -0.6596,-0.35046 -0.33309,0.0369 -0.62232,0.18436 -0.8711,0.40797 -0.0757,0.0691 -0.16142,0.14528 -0.23245,0.21898 -0.0392,0.0407 -0.14521,0.17289 -0.11365,0.12597 0.30957,-0.46019 1.26965,-1.81925 0.94852,-1.36705 -0.0302,0.0426 -2.73708,3.92885 -0.21528,0.30841 -0.17874,0.25772 -0.34855,0.5186 -0.49066,0.79833 -0.15454,0.23475 -0.24481,0.50945 -0.37901,0.75636 -0.17382,0.27285 -0.27375,0.5915 -0.4102,0.88414 -0.19404,0.4056 -0.31223,0.8465 -0.48439,1.26211 -0.12724,0.3749 -0.26084,0.7479 -0.36884,1.12864 -0.10933,0.34886 -0.22144,0.69866 -0.28744,1.05851 -0.0814,0.34783 -0.24315,0.66421 -0.31581,1.01451 -0.10736,0.341 -0.16807,0.69761 -0.27867,1.03784 -0.10172,0.35317 -0.23244,0.69517 -0.32387,1.05184 -0.13313,0.35511 -0.22845,0.72466 -0.32219,1.09167 -0.0929,0.32114 -0.10967,0.66241 -0.24106,0.97467 -0.051,0.4002 -0.15937,0.78746 -0.21119,1.18623 -0.0514,0.41802 -0.1443,0.83593 -0.0819,1.25794 0.0413,0.36824 0.1293,0.72717 0.17311,1.0937 0.035,0.28245 0.0858,0.55268 0.30466,0.75474 0.17881,0.21847 0.45143,0.28711 0.72467,0.3065 0.36144,-0.001 0.72468,0.002 1.08368,-0.0458 0.29186,-0.0545 0.54006,-0.15385 0.75033,-0.37204 0.46401,-0.51562 0.18937,-0.21886 -0.88423,1.31067 -0.0285,0.0407 0.048,-0.087 0.0743,-0.12918 0.0885,-0.14154 0.15685,-0.28245 0.21023,-0.44243 0.0779,-0.37156 0.17106,-0.73731 0.22885,-1.11289 0.084,-0.32545 0.13702,-0.65271 0.20754,-0.9815 0.0744,-0.36029 0.0139,-0.73595 0.0168,-1.10161 -0.0217,-0.37459 -0.0596,-0.74825 -0.14938,-1.11357 -0.0688,-0.31945 -0.0539,-0.65407 -0.17062,-0.96417 -0.1172,-0.3089 -0.19465,-0.62672 -0.31141,-0.93648 -0.0804,-0.38007 -0.21768,-0.74181 -0.31684,-1.11684 -0.1086,-0.33251 -0.18443,-0.67513 -0.31901,-0.99934 -0.11987,-0.32778 -0.19752,-0.66832 -0.35297,-0.98258 -0.13525,-0.35831 -0.31174,-0.70182 -0.47711,-1.04674 -0.16602,-0.35927 -0.34827,-0.71076 -0.51415,-1.07008 -0.12322,-0.29459 -0.27031,-0.57421 -0.42483,-0.85263 -0.1946,-0.32141 -0.38419,-0.64616 -0.59493,-0.95738 -0.22956,-0.35075 -0.4682,-0.69595 -0.66604,-1.06659 -0.22035,-0.33432 -0.4377,-0.67774 -0.72406,-0.96029 -0.37286,-0.3495 -0.78004,-0.66315 -1.19056,-0.96662 0,0 1.08571,-1.5232 1.08571,-1.5232 z"
       inkscape:connector-curvature="0" />
    <path
       style="fill:#969696;fill-opacity:1;fill-rule:nonzero;stroke:#969696;stroke-width:0.26499999;stroke-miterlimit:4;stroke-dasharray:none;stroke-opacity:1"
       id="path5278"
       d="m 155.383,183.94789 c 0.20235,-0.56652 0.36772,-1.14652 0.53004,-1.72577 0.12271,-0.40412 0.23891,-0.809 0.41133,-1.19514 0.13746,-0.31405 0.28589,-0.62131 0.4485,-0.92316 0.15676,-0.26821 0.32014,-0.53287 0.4655,-0.8076 0.38642,-0.8257 0.92701,-1.49538 1.45991,-2.26386 -1.774,2.75678 -0.93506,1.35772 -0.59974,0.6753 0.17755,-0.28264 0.29558,-0.59206 0.43211,-0.89461 0.26312,-0.60041 1.01305,-2.56174 1.56846,-1.78693 0.11121,0.34007 -0.0138,0.70273 -0.0663,1.04543 -0.0569,0.39634 -0.0681,0.79703 -0.0756,1.19674 -0.005,0.4193 -0.003,0.83864 -0.003,1.25796 8e-4,0.38237 0.001,0.76474 0.001,1.14711 1.3e-4,0.37761 1.2e-4,0.75521 1.2e-4,1.13282 -0.031,0.34351 0.0404,0.6736 0.10227,1.00827 0.009,0.0561 0.018,0.11197 0.0255,0.16817 0.0222,0.16631 0.0235,0.33623 0.0583,0.50068 0.007,0.0328 0.0181,0.0647 0.0288,0.0965 0.003,0.008 -0.003,-0.0175 -0.005,-0.0263 -0.13884,-0.65327 0.005,-0.088 -1.03154,1.29786 -0.0357,0.0477 0.0622,-0.1017 0.089,-0.15487 0.0347,-0.0687 0.0661,-0.13916 0.0952,-0.21047 0.0925,-0.22701 0.1017,-0.28112 0.17116,-0.51793 0.15304,-0.5689 0.30957,-1.13619 0.49602,-1.69512 0.15807,-0.49823 0.29079,-1.00337 0.43103,-1.5067 0.10214,-0.42366 0.20197,-0.84769 0.32148,-1.26695 0.1321,-0.35114 0.17917,-0.72425 0.28281,-1.08291 0.1084,-0.31718 0.24712,-0.62203 0.38113,-0.92873 0.30176,-0.63776 1.24315,-2.5687 1.57565,-1.50746 0.0467,0.3598 0.0231,0.72488 0.0153,1.08662 0.001,0.37152 -0.0291,0.74461 0.001,1.11531 0.0671,0.32929 0.11998,0.65948 0.14817,0.9944 -0.003,0.37445 0.0717,0.7395 0.13043,1.10726 0.048,0.38262 0.15092,0.75438 0.20957,1.13542 0.0518,0.37842 0.059,0.76076 0.0642,1.14206 0.003,0.37821 0.002,0.75644 0.001,1.13466 -2e-4,0.13981 -0.006,0.21128 0.0132,0.34632 0.006,0.0451 0.0702,0.16031 0.0345,0.13211 -0.0296,-0.0233 -0.0529,-0.11038 -0.0777,-0.082 -0.38115,0.4359 -0.70422,0.91933 -1.05632,1.379 0.0488,-0.3222 0.068,-0.6436 0.13532,-0.96337 0.086,-0.30917 0.21288,-0.60668 0.34094,-0.90066 0.33865,-0.78931 0.91128,-1.41234 1.39245,-2.13419 0.31333,-0.47004 -1.33372,1.82232 -0.97349,1.38719 0.42481,-0.51314 0.7785,-1.08123 1.16776,-1.62184 0.18011,-0.27999 0.48026,-0.3507 0.7889,-0.39858 0.427,-0.002 0.63826,0.28468 0.76696,0.65429 0.10512,0.40324 0.11115,0.82217 0.11718,1.23621 0.0321,1.29183 -0.12795,1.02155 -1.1899,2.54272 -0.36963,0.20287 -0.70587,0.079 -1.00616,-0.17684 -0.36122,-0.40921 -0.49942,-0.94868 -0.6057,-1.47107 -0.1112,-0.72025 -0.10801,-1.4525 -0.11285,-2.17954 -0.0157,-0.77491 0.14914,-1.52252 0.33477,-2.26835 0.12255,-0.48163 0.30952,-0.94097 0.51326,-1.39282 0.41488,-0.86884 0.99566,-1.59893 1.55261,-2.39671 -2.02987,3.03846 -0.54317,0.53512 0.26056,-0.32054 0.0955,-0.10168 0.22386,-0.15563 0.33025,-0.24486 0.23314,-0.19399 0.46259,-0.31737 0.76163,-0.38244 0.35097,-0.0738 0.64265,0.039 0.89597,0.27782 0.19641,0.26946 0.33321,0.58414 0.42754,0.90328 0.0867,0.35352 0.094,0.7191 0.10137,1.08106 0.0141,0.17664 -0.008,0.34977 -0.0365,0.52329 0,0 -1.24366,1.39951 -1.24366,1.39951 v 0 c 0.0387,-0.16556 0.0902,-0.32655 0.0683,-0.49937 -0.004,-0.35056 -0.005,-0.70374 -0.0678,-1.0498 -0.07,-0.29733 -0.19616,-0.57776 -0.34824,-0.84116 -0.20617,-0.20977 -0.44993,-0.25396 -0.73324,-0.17245 -0.26671,0.0874 -0.47802,0.24808 -0.69697,0.42056 -0.11166,0.0814 -0.20188,0.15963 -0.29251,0.26398 -0.0298,0.0343 -0.11491,0.14052 -0.0893,0.10298 0.41863,-0.61379 2.40188,-3.4352 -0.16339,0.22041 1.86698,-2.70128 0.88993,-1.33446 0.54375,-0.65256 -0.19931,0.4531 -0.41383,0.89964 -0.54464,1.37966 -0.18837,0.73909 -0.38738,1.47345 -0.37643,2.24457 0.006,0.71646 0.002,1.43662 0.0953,2.14825 0.0863,0.48608 0.20014,0.99143 0.51247,1.38685 0.23705,0.20601 0.52227,0.28013 0.75531,0.0177 -2.29318,3.3777 -0.91114,1.65291 -0.86032,1.14024 0.0191,-0.19249 -0.0118,-0.38999 0.003,-0.58285 -0.002,-0.40123 -1.4e-4,-0.80588 -0.0761,-1.20148 -0.0766,-0.29557 -0.18896,-0.54475 -0.54309,-0.49552 -0.29457,0.0719 -0.50615,0.20615 -0.68208,0.45833 2.47277,-3.56027 -0.016,0.0271 -0.17755,0.24124 -0.33909,0.44944 0.63479,-0.9301 0.96005,-1.38965 0.22974,-0.3246 -0.50598,0.70261 -0.25367,0.47513 -0.14218,0.28291 -0.2389,0.58224 -0.37157,0.86912 -0.065,0.32171 -0.13566,0.63342 -0.13149,0.96472 -0.37347,0.55367 -0.7083,1.13546 -1.12039,1.661 -0.0303,0.0387 -0.0939,-0.0329 -0.13408,-0.0612 -0.15021,-0.10552 -0.1109,-0.40857 -0.122,-0.55662 5.2e-4,-0.37774 0.002,-0.75549 5.2e-4,-1.13323 -0.003,-0.37582 -0.005,-0.7525 -0.0454,-1.1266 -0.049,-0.38303 -0.152,-0.75334 -0.20798,-1.13406 -0.0539,-0.37179 -0.15172,-0.73729 -0.14255,-1.11536 -0.0211,-0.33252 -0.0585,-0.66318 -0.14059,-0.98697 -0.0654,-0.37388 -0.0131,-0.75736 -0.0213,-1.13546 0.007,-0.35157 0.0209,-0.70336 0.0118,-1.05498 -0.0452,-0.84629 1.63942,-2.42771 0.88282,-1.31967 -0.11228,0.31391 -0.27288,0.6073 -0.3931,0.91856 -0.11344,0.35939 -0.16581,0.72891 -0.28414,1.08767 -0.14286,0.41223 -0.22927,0.84262 -0.32975,1.26653 -0.14001,0.50581 -0.27656,1.01138 -0.42494,1.51468 -0.18829,0.55723 -0.36124,1.11792 -0.50463,1.68881 -0.20587,0.81069 -0.81803,2.56943 -1.61286,2.53344 -0.0404,-0.0243 -0.0902,-0.0374 -0.12137,-0.0728 -0.1511,-0.1716 -0.0694,-0.57768 -0.13274,-0.78869 -0.0573,-0.34358 -0.16097,-0.67874 -0.12539,-1.03135 0,-0.3776 0,-0.7552 -6e-5,-1.1328 -8e-5,-0.38259 -2.3e-4,-0.76518 -5.3e-4,-1.14777 -2.2e-4,-0.42059 -8e-4,-0.84119 0.002,-1.26178 0.004,-0.40373 0.007,-0.80833 0.0555,-1.20983 0.0423,-0.32308 0.12748,-0.6441 0.14676,-0.96616 -0.012,-0.6785 -0.0126,-0.0464 1.10254,-1.55729 0.0211,-0.0285 -0.0438,0.0561 -0.0613,0.0869 -0.0722,0.12722 -0.14327,0.26017 -0.18186,0.40166 -0.13195,0.30592 -0.23709,0.62564 -0.43173,0.90001 -0.38591,0.87188 -0.87077,1.61251 -1.49905,2.37624 1.8267,-2.64796 0.96328,-1.46454 0.64082,-0.79147 -0.11451,0.28975 -0.29062,0.55599 -0.46137,0.81501 -0.1502,0.30827 -0.33667,0.59667 -0.45131,0.92162 -0.20164,0.37352 -0.31088,0.7769 -0.44395,1.17824 -0.15514,0.58131 -0.33812,1.15536 -0.51184,1.73121 0,0 -1.26382,1.37654 -1.26382,1.37654 z"
       inkscape:connector-curvature="0" />
    <path
       style="fill:#969696;fill-opacity:1;fill-rule:nonzero;stroke:#969696;stroke-width:0.26499999;stroke-miterlimit:4;stroke-dasharray:none;stroke-opacity:1"
       id="path5280"
       d="m 166.87151,179.44388 c 1.05242,-1.62203 -3.53424,5.1888 0.4694,-0.68481 0.29508,-0.43292 -0.60176,0.85783 -0.9055,1.28473 -0.0952,0.13386 0.18147,-0.27393 0.26933,-0.41274 0.22728,-0.35583 0.41311,-0.73534 0.62955,-1.09747 0.19776,-0.3129 0.3687,-0.64145 0.56448,-0.95544 -0.12483,-0.64484 1.3198,-2.4342 1.49066,-1.25827 0.0263,0.35648 0.0202,0.71451 0.0193,1.07171 0.0138,0.36171 -0.003,0.71566 -0.0736,1.07029 -0.0743,0.33834 -0.0962,0.68409 -0.1101,1.0292 -0.0111,0.37476 -0.0101,0.74974 -0.01,1.12462 0.004,0.35755 -0.0206,0.71483 0.0419,1.06823 0.0726,0.24582 0.20666,0.46992 0.41376,0.62304 0.28052,0.13886 0.60266,0.13837 0.909,0.14857 0.37996,0.0414 0.66425,-0.0363 0.93477,-0.30622 -0.0876,0.0841 0.2716,-0.37395 0.20564,-0.27907 -0.3203,0.4608 -1.30309,1.82772 -0.97204,1.37459 0.39462,-0.54014 0.77641,-1.08955 1.16277,-1.63563 0.0291,-0.0412 0.11279,-0.16709 0.0836,-0.126 -0.32868,0.46257 -0.65473,0.927 -0.98209,1.39051 0.1454,-0.3214 0.27878,-0.64995 0.40091,-0.98111 0.0946,-0.32972 0.22659,-0.64484 0.29928,-0.98058 0.0853,-0.30697 0.17378,-0.60879 0.21748,-0.92523 0.0175,-0.32727 0.11533,-0.64089 0.16895,-0.96267 0.0507,-0.35624 0.0558,-0.71668 0.0607,-1.07582 0.003,-0.3776 0.002,-0.75521 0.001,-1.13281 -0.0173,-0.23909 -0.0348,-0.55189 -0.3168,-0.60743 -0.26251,0.0167 -0.51575,0.16899 -0.7098,0.34019 0.27414,-0.39758 -0.53995,0.73748 -0.25787,0.34187 1.66212,-2.33116 1.14497,-1.72397 0.83542,-1.10294 -0.15381,0.33007 -0.19125,0.69152 -0.21562,1.05008 -0.0342,0.33793 0.004,0.62777 0.31985,0.79478 0.40519,0.14461 0.78476,-0.11031 1.10849,-0.33061 0.40609,-0.29227 0.74014,-0.6706 1.02593,-1.07865 1.45932,-2.00988 -3.35287,4.70221 0.52877,-0.74121 0.31962,-0.44822 -0.63333,0.90063 -0.95,1.35095 0.38497,-0.54159 0.76994,-1.08318 1.15491,-1.62477 0.3189,-0.16579 0.37222,0.3028 0.38733,0.51106 0.002,0.37118 0.0796,0.73552 0.17724,1.09179 0.0872,0.38502 0.20539,0.76206 0.29073,1.14745 0.0768,0.35674 0.19857,0.69806 0.31952,1.04109 0.0714,0.31333 0.17873,0.61676 0.25559,0.92863 0.0485,0.35582 0.13135,0.70509 0.19534,1.05822 0.0388,0.35122 0.079,0.69698 0.15728,1.04172 0.0239,0.14951 0.0643,0.2957 0.11778,0.43726 0.0119,0.0314 0.025,0.0623 0.0397,0.0925 0.005,0.01 0.0258,0.0338 0.0182,0.0263 -0.0243,-0.024 -0.0458,-0.0507 -0.0687,-0.0761 -1.54804,2.6759 -1.11097,1.37839 -0.80907,0.60939 0.13154,-0.33991 0.27766,-0.67392 0.45586,-0.99199 3.16529,-4.51179 0.1085,-0.18326 0.17606,-0.26502 0.75076,-0.90848 0.70076,-1.56972 1.5985,-1.80358 0.34592,-0.0913 0.63266,-0.024 0.91187,0.18942 0.24903,0.25296 0.28614,0.59973 0.31462,0.93651 0.0319,0.38103 0.0215,0.75691 -0.0713,1.12829 -0.40744,0.89052 -0.91403,2.19624 -1.94093,1.73198 -0.38126,-0.23258 -0.59848,-0.61919 -0.78559,-1.01055 -0.21561,-0.49185 -0.25232,-1.03236 -0.28082,-1.56169 -0.048,-0.53793 0.0574,-1.05466 0.2357,-1.55833 0.17658,-0.418 0.35139,-0.83566 0.55966,-1.23896 0.17076,-0.29758 0.35513,-0.58764 0.5178,-0.88981 0.12936,-0.29991 0.30508,-0.57685 0.42663,-0.87975 0.23251,-0.71449 0.13643,-0.39595 1.3203,-1.47965 0.0289,-0.0264 0.022,0.0751 0.0335,0.11244 0.0673,0.21791 0.0152,0.0343 0.0785,0.26703 0.0693,0.3218 0.20369,0.56124 0.46581,0.75826 0.26993,0.16798 0.49659,0.12035 0.69099,-0.11719 0.12459,-0.0963 0.20329,-0.23276 0.29888,-0.35498 0.038,-0.0486 0.15114,-0.19503 0.11594,-0.14435 -1.10967,1.59745 -1.22921,1.80125 -0.85656,1.191 0.1718,-0.37353 0.33063,-0.75506 0.45575,-1.14689 0.14932,-0.41145 0.24502,-0.83817 0.36445,-1.2584 0.12295,-0.50965 0.18832,-1.03256 0.26234,-1.55139 0.0648,-0.64022 0.1187,-1.28026 0.19561,-1.91937 0.0739,-0.59301 0.0966,-1.19025 0.1088,-1.78716 0.007,-0.44945 0.006,-0.89896 0.005,-1.34844 -0.001,-0.38014 -0.001,-0.76028 -0.002,-1.14042 -2e-4,-0.377 -2e-4,-0.754 -2e-4,-1.131 0,-0.063 2.7e-4,-0.1259 0,-0.18885 -1.1e-4,-0.026 -0.01,-0.23145 -0.006,-0.23569 1.25362,-1.37423 1.22686,-1.92202 1.22199,-1.18761 -0.001,0.38191 -0.003,0.76381 -0.003,1.14572 1.5e-4,0.41253 5.3e-4,0.82505 8e-4,1.23757 2e-4,0.38093 2.3e-4,0.76186 2.5e-4,1.14279 1e-5,0.37763 0,0.75525 0,1.13287 0,0.37791 0,0.75582 -10e-6,1.13373 0,0.37797 0,0.75595 0,1.13393 0,0.37798 0,0.75595 0,1.13393 -0.002,0.37653 -0.0139,0.75107 0.042,1.1242 0.0725,0.37681 0.11015,0.75808 0.13134,1.14078 0.0167,0.37867 0.0165,0.75782 0.0169,1.13678 -8e-5,0.378 -8e-4,0.756 -0.001,1.134 -2.6e-4,0.37796 -2.6e-4,0.75592 -2.6e-4,1.13388 -2e-5,0.37798 -1e-5,0.75595 -1e-5,1.13393 0.0296,0.35037 -0.036,0.68822 -0.10062,1.0297 -0.0531,0.35737 -0.15451,0.70384 -0.21257,1.06041 -0.053,0.37167 -0.0596,0.74758 -0.0647,1.12231 0.006,0.80811 0.0609,0.32672 -1.21944,1.58469 -0.0356,0.035 0.002,-0.0999 0.003,-0.14982 7.9e-4,-0.0618 10e-4,-0.12364 0.002,-0.18546 0.004,-0.54205 0.004,-1.08413 0.005,-1.6262 0.001,-0.59267 2.2e-4,-1.18533 -0.002,-1.778 -0.001,-0.42405 -0.002,-0.8481 -0.002,-1.27216 -2.3e-4,-0.37774 -2e-4,-0.75549 -2e-4,-1.13323 -0.0128,-0.39062 0.0667,-0.77528 0.17141,-1.14931 0.12203,-0.38043 0.28495,-0.74611 0.48061,-1.094 0.48347,-0.90872 1.01168,-1.76901 1.89948,-2.26687 0.34585,-0.17631 0.68258,-0.20909 1.02369,-0.0206 0.25836,0.21533 0.43114,0.51318 0.54516,0.82592 0.10336,0.35076 0.11066,0.7186 0.11869,1.08134 0.005,0.37848 0.002,0.75699 5.2e-4,1.13549 0.0204,0.34697 -0.0216,0.68441 -0.11196,1.0186 -0.35182,0.87495 -0.94074,1.70311 -1.69593,2.27524 -0.2742,0.2769 -0.61969,0.46099 -0.93497,0.68449 -0.35726,0.23552 -0.73907,0.4274 -1.11187,0.63587 -0.36117,0.2011 -0.76179,0.27361 -1.16772,0.31226 -0.43075,-0.004 -0.72478,-0.24407 -0.92886,-0.60303 -0.14437,-0.3448 -0.20262,-0.72112 -0.12933,-1.08839 0.33496,-0.75418 0.81408,-1.64128 1.55651,-2.07158 0.61039,-0.35378 -0.21475,0.16126 0.33267,-0.18545 0.32125,-0.16726 0.65636,-0.3016 1.00983,-0.38226 0.36721,-0.0713 0.71701,-0.12609 1.02798,0.11301 0.27654,0.31751 0.3565,0.72999 0.41242,1.13454 0.0698,0.56878 0.0171,1.13724 -0.0404,1.70395 -0.0583,0.56019 -0.087,1.12273 -0.10278,1.68553 9e-5,0.47625 0.2261,0.52221 0.65493,0.52883 0.9268,-0.17411 1.63406,-0.85956 2.29619,-1.48479 0.70689,-0.69344 1.32129,-1.46207 1.91885,-2.2485 0.18826,-0.25102 0.39101,-0.49031 0.59534,-0.72821 0,0 -0.82994,1.66233 -0.82994,1.66233 v 0 c -0.19912,0.23765 -0.39648,0.47674 -0.58288,0.72464 -0.59751,0.77915 -1.22835,1.52864 -1.93572,2.21215 -0.70199,0.63977 -1.45481,1.34295 -2.44201,1.44481 -0.45817,-0.0347 -0.86937,-0.16966 -0.88943,-0.6969 0.0152,-0.56803 0.045,-1.13558 0.0985,-1.70141 0.056,-0.55525 0.12714,-1.10916 0.0635,-1.6678 -0.0368,-0.36093 -0.0834,-0.73742 -0.30174,-1.03962 -0.24275,-0.20486 -0.59859,-0.0709 -0.87966,-0.0244 -0.33598,0.0953 -0.65974,0.23295 -0.9614,0.40953 -0.16291,0.0953 -0.32343,0.18435 -0.46041,0.31662 -0.0459,0.0443 -0.16424,0.19445 -0.12918,0.14117 0.27395,-0.41626 1.32314,-1.9495 0.84698,-1.23187 -0.14369,0.32102 -0.084,0.66618 0.0168,0.99512 0.14561,0.31647 0.37775,0.5046 0.74219,0.47771 0.38821,-0.0492 0.76308,-0.14328 1.10273,-0.34628 0.37294,-0.20163 0.74472,-0.40622 1.0952,-0.64571 0.31854,-0.21615 0.64188,-0.4255 0.92182,-0.69256 0.14138,-0.1267 0.15285,-0.13091 0.28141,-0.27024 0.0387,-0.0419 0.1442,-0.1764 0.11233,-0.1291 -1.78274,2.64547 -1.10186,1.71348 -0.82839,1.16124 0.14514,-0.3019 0.17348,-0.64758 0.16409,-0.97863 0.001,-0.37763 0.004,-0.75525 0.002,-1.13288 -0.004,-0.34863 -0.004,-0.70099 -0.0772,-1.04347 -0.0794,-0.27722 -0.21987,-0.54029 -0.4308,-0.73941 -0.29319,-0.14781 -0.58461,-0.0417 -0.85547,0.1166 -0.72845,0.48051 -1.22827,1.41732 0.37423,-0.88934 0.035,-0.0504 -0.067,0.1028 -0.10045,0.15419 -0.19305,0.34552 -0.38138,0.6903 -0.51345,1.06596 -0.10697,0.3622 -0.21618,0.73291 -0.21013,1.11408 0,0.3779 3e-5,0.75579 -1.9e-4,1.13369 -2.6e-4,0.42588 -0.001,0.85178 -0.002,1.27766 -0.002,0.59388 -0.003,1.18775 -0.002,1.78163 5.3e-4,0.53882 5.3e-4,1.07764 0.003,1.61645 2.7e-4,0.0608 5.3e-4,0.12164 0.001,0.18246 5.3e-4,0.0482 0.0306,0.1058 0.002,0.14465 -1.42232,1.93396 -1.22444,2.10484 -1.2178,1.26508 0.003,-0.37979 0.005,-0.76042 0.0457,-1.1385 0.046,-0.36024 0.14159,-0.70698 0.20662,-1.06216 0.0549,-0.33749 0.16361,-0.66407 0.12705,-1.01048 0,-0.37798 -1e-5,-0.75595 -1e-5,-1.13393 2e-5,-0.37799 3e-5,-0.75598 2.4e-4,-1.13397 2.4e-4,-0.37795 8e-4,-0.7559 0.001,-1.13386 1.3e-4,-0.37703 0.001,-0.75416 -0.0102,-1.13107 -0.0152,-0.3777 -0.0416,-0.7554 -0.11457,-1.12708 -0.0684,-0.38027 -0.08,-0.75704 -0.0656,-1.14366 0,-0.37797 0,-0.75595 0,-1.13393 0,-0.37797 0,-0.75595 0,-1.13393 0,-0.3779 0,-0.75581 0,-1.13371 0,-0.37763 -1e-5,-0.75525 0,-1.13288 2e-5,-0.38112 4e-5,-0.76224 2.5e-4,-1.14336 2.5e-4,-0.41322 8e-4,-0.82644 8e-4,-1.23966 -1.7e-4,-0.3795 -0.002,-0.759 -0.003,-1.1385 -0.005,-0.78762 -0.0286,-0.11626 1.22197,-1.67387 0.0218,-0.0272 -0.004,0.0695 -0.005,0.10436 -7.9e-4,0.0485 -0.001,0.097 -0.002,0.14557 -2.7e-4,0.063 0,0.1259 0,0.18885 1e-5,0.37696 2e-5,0.75392 1.6e-4,1.13088 1.6e-4,0.38042 5.3e-4,0.76084 7.9e-4,1.14125 1e-4,0.45267 7e-5,0.90536 -0.008,1.35797 -0.012,0.60147 -0.0266,1.20366 -0.0968,1.80178 -0.0781,0.63967 -0.14815,1.27768 -0.19244,1.92063 -0.0704,0.52158 -0.14363,1.04309 -0.23613,1.56082 -0.11962,0.42145 -0.21232,0.84988 -0.36484,1.26153 -0.10905,0.40304 -0.27803,0.78031 -0.42368,1.1708 -0.41741,0.85963 -1.01973,1.65918 -1.70283,2.33122 -0.30065,0.19549 -0.60401,0.17568 -0.90759,-0.0173 -0.29596,-0.21953 -0.47832,-0.47206 -0.5697,-0.83296 -0.008,-0.0338 -0.12342,-0.36313 -0.11321,-0.37773 2.29089,-3.27301 1.34498,-1.9732 1.12496,-1.35963 -0.0926,0.32098 -0.27141,0.59211 -0.41083,0.89303 -0.1308,0.31957 -0.33415,0.60804 -0.51823,0.8988 -0.20383,0.40501 -0.39799,0.81034 -0.57865,1.22667 -0.18585,0.48803 -0.33945,0.97966 -0.29306,1.51104 0.0207,0.50978 0.0401,1.03225 0.22757,1.51318 0.15712,0.35135 0.341,0.71447 0.67884,0.92342 0.13872,0.0534 0.25236,0.086 0.39248,0.008 0.0413,-0.0229 0.13797,-0.12606 0.11237,-0.0864 -0.70933,1.10005 -1.34835,1.88057 -0.86465,1.28467 0.14485,-0.3455 0.14777,-0.71095 0.12581,-1.08082 -0.0145,-0.28455 -0.0135,-0.59944 -0.19295,-0.8361 -0.2331,-0.18539 -0.47613,-0.18776 -0.75516,-0.0924 -0.11269,0.0477 -0.15154,0.0545 -0.24668,0.13193 -0.0355,0.0289 -0.12309,0.13453 -0.0976,0.0965 0.31673,-0.47199 1.309,-1.85885 0.97268,-1.40061 -0.33877,0.46158 -2.48492,3.57455 -0.19084,0.25376 -0.17459,0.3168 -0.34633,0.63155 -0.47651,0.97081 -0.0515,0.15298 -0.13019,0.29301 -0.18384,0.44351 -0.31548,0.88491 0.28338,0.45411 -1.19736,1.97132 -0.27654,-0.11759 -0.30748,-0.4 -0.36598,-0.67387 -0.0766,-0.34887 -0.14905,-0.69113 -0.16279,-1.05002 -0.0561,-0.35203 -0.15662,-0.69405 -0.18965,-1.04938 -0.0637,-0.31129 -0.18692,-0.60343 -0.23998,-0.91706 -0.11399,-0.3527 -0.25309,-0.69467 -0.33532,-1.05779 -0.0741,-0.3854 -0.20126,-0.75572 -0.28052,-1.13984 -0.10317,-0.36312 -0.20493,-0.73443 -0.21199,-1.11396 -0.003,-0.0897 -0.008,-0.17935 -0.0115,-0.26907 -0.004,-0.13072 0.0861,-0.0808 0.001,0.006 2.43415,-3.49315 0.021,-0.0268 -0.19662,0.26993 -0.32221,0.43922 1.24388,-1.78898 0.93196,-1.3424 -0.48535,0.69487 -0.95586,1.39931 -1.45892,2.08124 -0.31337,0.39713 -0.65441,0.77331 -1.08587,1.04603 -0.39495,0.23353 -0.82976,0.434 -1.28417,0.23576 -0.35823,-0.20309 -0.52614,-0.50601 -0.48411,-0.92556 0.0156,-0.36943 0.0375,-0.7433 0.16254,-1.09491 0.35028,-0.85042 0.90699,-1.63274 1.57242,-2.26537 0.26058,-0.16286 0.54743,-0.31775 0.86458,-0.25327 0.34306,0.1359 0.4647,0.39945 0.50065,0.75559 5.3e-4,0.378 0.002,0.75601 2.6e-4,1.13402 -0.002,0.36372 -0.004,0.72821 -0.0404,1.09049 -0.0401,0.32523 -0.13981,0.63578 -0.17331,0.95937 -0.0296,0.31985 -0.0789,0.6363 -0.20793,0.93346 -0.0533,0.34878 -0.17736,0.66658 -0.28058,1.0008 -0.10695,0.3406 -0.26705,0.65956 -0.37381,1.00003 -0.37575,0.55134 -0.74942,1.1041 -1.12726,1.65402 -0.0287,0.0418 -0.12115,0.16284 -0.0923,0.12106 0.32043,-0.46478 1.30446,-1.84297 0.96731,-1.39017 -0.40125,0.5389 -0.76997,1.10129 -1.15971,1.64857 -0.0793,0.11139 -0.14073,0.16461 -0.23759,0.26175 -0.32673,0.22466 -0.65981,0.27908 -1.05328,0.23857 -0.34354,-0.016 -0.69817,-0.0319 -1.00468,-0.20559 -0.24598,-0.18026 -0.40965,-0.42696 -0.5225,-0.70929 -0.0793,-0.36249 -0.0767,-0.72347 -0.0679,-1.09403 -5.3e-4,-0.37606 -0.002,-0.75216 0.005,-1.12819 0.009,-0.35045 0.0204,-0.70245 0.085,-1.04796 0.0715,-0.34958 0.13846,-0.68778 0.10341,-1.04852 0.001,-0.35132 0.005,-0.70284 -0.009,-1.05398 -0.004,-0.0674 -0.034,-0.14011 -0.008,-0.20224 0.0177,-0.0419 0.0666,0.0165 0.0659,0.024 -0.002,0.0226 -0.0242,0.0383 -0.0363,0.0575 0.32725,-0.47127 0.65451,-0.94254 0.98176,-1.41381 -0.18832,0.31861 -0.3782,0.63554 -0.56729,0.95413 -0.2112,0.36774 -0.41857,0.73693 -0.63157,1.10411 -0.43365,0.74107 -0.99665,1.46573 -1.46513,2.14724 -0.29298,0.42618 1.17822,-1.70038 0.88678,-1.27314 -1.09324,1.60263 -0.80103,1.21519 -1.37491,1.9619 0,0 0.83405,-1.67429 0.83405,-1.67429 z"
       inkscape:connector-curvature="0" />
  </g>
</svg>
